<?xml version="1.0" standalone="no"?>
<!DOCTYPE svg PUBLIC "-//W3C//DTD SVG 20010904//EN"
 "http://www.w3.org/TR/2001/REC-SVG-20010904/DTD/svg10.dtd">
<svg version="1.0" xmlns="http://www.w3.org/2000/svg"
 width="200.000000pt" height="200.000000pt" viewBox="0 0 200.000000 200.000000"
 preserveAspectRatio="xMidYMid meet">

<g transform="translate(0.000000,200.000000) scale(0.100000,-0.100000)"
fill="#000000" stroke="none">
<path d="M843 1861 c-280 -45 -525 -228 -650 -486 -65 -135 -85 -225 -87 -380
-1 -138 13 -218 61 -339 84 -216 300 -427 508 -496 261 -87 534 -60 747 73
211 131 352 332 403 573 19 87 19 279 1 364 -69 325 -320 590 -635 671 -85 22
-268 32 -348 20z m97 -381 l0 -250 -80 0 -80 0 0 150 c0 103 -3 150 -11 150
-6 0 -39 -15 -73 -32 -83 -45 -182 -146 -228 -234 -31 -59 -68 -166 -68 -196
0 -4 122 -8 270 -8 l270 0 -2 -412 -3 -413 -40 3 c-75 6 -160 32 -255 79 -79
39 -109 60 -180 132 -83 84 -160 200 -175 264 l-7 27 83 0 84 0 28 -50 c55
-97 173 -205 270 -245 l37 -15 0 235 0 235 -270 0 -270 0 -7 28 c-10 43 12
210 40 293 65 191 216 364 387 442 72 32 191 66 238 66 l42 1 0 -250z m200
234 c84 -19 232 -92 295 -144 62 -52 130 -131 174 -204 39 -65 89 -204 93
-261 l3 -40 -77 -3 -77 -3 -11 43 c-35 136 -80 218 -167 303 -50 49 -165 125
-190 125 -10 0 -13 -111 -13 -549 l0 -550 38 16 c56 23 155 97 201 150 49 57
105 167 125 243 l13 55 82 3 82 3 -6 -38 c-11 -65 -46 -165 -82 -234 -111
-214 -330 -364 -570 -392 l-43 -5 0 749 0 749 33 0 c17 0 61 -7 97 -16z"/>
</g>
</svg>
